<svg xmlns="http://www.w3.org/2000/svg" viewBox="0 0 300 300"><defs><style>.cls-1{fill:#056184;}</style></defs><title>SportUp</title><g id="Layer_2" data-name="Layer 2"><path class="cls-1" d="M30,171.62l7.16-7.09a7.44,7.44,0,0,0,5.53,2.41,6,6,0,0,0,4-1.49,6.82,6.82,0,0,0,1.92-5,6,6,0,0,0-3.26-4.89c-2.91-1.42-5.6-2.7-7.73-4.68a12.94,12.94,0,0,1-4-9.58,13.94,13.94,0,0,1,4.32-10.14,14.15,14.15,0,0,1,9.86-4h5.88v9.58H49.27c-3.33,0-5.18,2-5.18,4.32,0,2.62,1.77,3.55,4,4.54a20.62,20.62,0,0,1,6.38,4.32,14.38,14.38,0,0,1,4.47,10,17.47,17.47,0,0,1-4.68,12.41,15.76,15.76,0,0,1-11.48,4.82A18.7,18.7,0,0,1,30,171.62Z"/><path class="cls-1" d="M66.36,141.34h8.86v1.92A18.08,18.08,0,0,1,84.09,141c10.14,0,17.72,7.94,17.72,18.08s-7.58,18.08-17.72,18.08a17.36,17.36,0,0,1-8.87-2.27v34.25H66.36ZM84.09,167c4.46,0,7.51-3.54,7.51-7.94s-3-7.8-7.51-7.8a7.51,7.51,0,0,0-7.59,7.8A7.63,7.63,0,0,0,84.09,167Z"/><path class="cls-1" d="M123.44,141c10.14,0,17.73,7.94,17.73,18.08s-7.59,18.08-17.73,18.08-17.73-7.87-17.73-18.08S113.23,141,123.44,141Zm0,26c4.47,0,7.52-3.54,7.52-7.94s-3.05-7.8-7.52-7.8a7.51,7.51,0,0,0-7.58,7.8A7.63,7.63,0,0,0,123.44,167Z"/><path class="cls-1" d="M146.49,141.34h8.86V147a7.48,7.48,0,0,1,7.45-6,7.38,7.38,0,0,1,7.52,7.44A7.5,7.5,0,0,1,162.8,156a7.61,7.61,0,0,1-7.45-6V176.8h-8.86Z"/><path class="cls-1" d="M176.91,176.8V149H171l5.88-7.66v-7.09h8.79v7.09h5.39V149H185.7v27.8Z"/><path class="cls-1" d="M203.26,159.07c0,4.4,3.93,7.3,7.9,7.3,4.26,0,8-3.12,8-7.3V127.16h5.4v26.52c0,6.53.57,13.55-4.32,18.58-2.77,2.84-4.51,4.54-9.05,4.54s-6.14-1.63-8.9-4.4c-4.68-4.68-4.4-11.91-4.4-18.51V127.16h5.4Z"/><path class="cls-1" d="M235.56,141.34h8.86v1.92a18,18,0,0,1,8.86-2.27c10.14,0,17.73,7.94,17.73,18.08s-7.59,18.08-17.73,18.08a17.32,17.32,0,0,1-8.86-2.27v34.25h-8.86ZM253.28,167c4.47,0,7.52-3.54,7.52-7.94s-3.05-7.8-7.52-7.8a7.52,7.52,0,0,0-7.59,7.8A7.64,7.64,0,0,0,253.28,167Z"/><path class="cls-1" d="M80.94,184.26v-4.73s112.82,1.4,114.89,0a5.29,5.29,0,0,0,2-4.24V127.16h5.42V175.1s0,9.16-7.13,9.16Z"/><path class="cls-1" d="M234,184.26v-4.73H226.6c-2.56,0-2-4.24-2-4.24V127.16h-5.42V175.1c0,4.68.71,9.16,8.17,9.16Z"/></g></svg>